<svg viewBox="-265.057 -133.083 1359.465 952" width="1359.465" height="952" xmlns="http://www.w3.org/2000/svg">
  <defs></defs>
  <path style="fill: none; stroke-linejoin: round; stroke-linecap: round; stroke: rgb(72, 71, 110); stroke-opacity: 0.12;" d="M -268.093 -4.279 L -131.716 -4.279 C -131.716 -4.279 -89.444 2.141 -89.444 37.994 C -89.444 37.994 -88.132 63.397 -121.876 70.425"></path>
  <path style="fill: none; stroke-linejoin: round; stroke-linecap: round; stroke: rgb(72, 71, 110); stroke-opacity: 0.12;" d="M -268.796 35.79 L 53.633 35.79 C 53.633 35.79 96.02 39.097 93.911 -4.488 C 93.911 -4.488 98.282 -39.485 59.618 -38.782"></path>
  <path style="fill: none; stroke-linejoin: round; stroke-linecap: round; stroke: rgb(72, 71, 110); stroke-opacity: 0.12;" d="M -268.796 102.574 L 225.402 102.574"></path>
  <path style="fill: none; stroke-linejoin: round; stroke-linecap: round; stroke: rgb(72, 71, 110); stroke-opacity: 0.12;" d="M -269.344 128.584 L 376 128.584 C 376 128.584 411.632 127.661 413.037 165.621 C 413.037 165.621 408.786 190.259 388.4 190.259"></path>
  <path style="fill: none; stroke: rgb(72, 71, 110); stroke-opacity: 0.12;" d="M -279.066 628.864 L 743.282 628.864 C 743.282 628.864 800.589 635.183 797.485 574.66 C 797.485 574.66 795.641 532.468 755.293 532.468"></path>
  <path style="fill: none; stroke: rgb(72, 71, 110); stroke-opacity: 0.12;" d="M -272.513 571.789 L 338.42 571.789"></path>
  <path style="fill: none; stroke: rgb(72, 71, 110); stroke-opacity: 0.12;" d="M -275.617 522.129 L 401.276 522.129 C 401.276 522.129 431.409 524.328 428.306 549.159 C 428.306 549.159 428.045 566.49 406.319 571.146"></path>
  <line style="stroke: rgb(72, 71, 110); stroke-opacity: 0.12;" x1="205.808" y1="-5.363" x2="582.937" y2="-5.363"></line>
  <line style="stroke: rgb(72, 71, 110); stroke-opacity: 0.12;" x1="-186.663" y1="393.685" x2="301.514" y2="393.685"></line>
  <line style="stroke: rgb(72, 71, 110); stroke-opacity: 0.12;" x1="179.497" y1="448.499" x2="495.236" y2="448.499"></line>
  <line style="stroke: rgb(72, 71, 110); stroke-opacity: 0.12;" x1="-237.092" y1="-86.489" x2="129.304" y2="-86.489"></line>
  <line style="stroke: rgb(72, 71, 110); stroke-opacity: 0.12;" x1="591.702" y1="591.017" x2="997.423" y2="591.017"></line>
  <line style="stroke: rgb(72, 71, 110); stroke-opacity: 0.12;" x1="975.403" y1="433.152" x2="1048.944" y2="433.152"></line>
  <line style="stroke: rgb(72, 71, 110); stroke-opacity: 0.12;" x1="896.47" y1="97.688" x2="1149.985" y2="97.688"></line>
  <line style="stroke: rgb(72, 71, 110); stroke-opacity: 0.12;" x1="850.426" y1="12.176" x2="949.19" y2="12.176"></line>
  <line style="stroke: rgb(72, 71, 110); stroke-opacity: 0.12;" x1="-265.595" y1="255.553" x2="-131.831" y2="255.553"></line>
  <line style="stroke: rgb(72, 71, 110); stroke-opacity: 0.12;" x1="-291.907" y1="700.646" x2="111.581" y2="700.646"></line>
  <line style="stroke: rgb(72, 71, 110); stroke-opacity: 0.12;" x1="-177.892" y1="762.038" x2="629.479" y2="762.038"></line>
  <line style="stroke: rgb(72, 71, 110); stroke-opacity: 0.12;" x1="1091.61" y1="786.156" x2="768.221" y2="786.156"></line>
  <line style="stroke: rgb(72, 71, 110); stroke-opacity: 0.12;" x1="1069.684" y1="654.602" x2="731.366" y2="654.602"></line>
  <line style="stroke: rgb(72, 71, 110); stroke-opacity: 0.12;" x1="1100.38" y1="715.994" x2="576.189" y2="715.994"></line>
  <path style="fill: none; stroke-linejoin: round; stroke-linecap: round; stroke: rgb(72, 71, 110); stroke-opacity: 0.12;" d="M -318.165 284.915 L 55.397 284.915 C 55.397 284.915 76.023 284.38 76.836 306.354 C 76.836 306.354 74.375 320.616 62.575 320.616"></path>
  <path style="fill: none; stroke-linejoin: round; stroke-linecap: round; stroke: rgb(72, 71, 110); stroke-opacity: 0.12;" d="M 78.459 478.279 L 423.564 478.279 C 423.564 478.279 442.618 479.037 443.37 447.826 C 443.37 447.826 441.096 427.567 430.195 427.567"></path>
  <path style="fill: none; stroke-linejoin: round; stroke-linecap: round; stroke: rgb(72, 71, 110); stroke-opacity: 0.12;" d="M -410.44 200.308 L -126.927 200.308"></path>
  <path style="fill: none; stroke-linejoin: round; stroke-linecap: round; stroke: rgb(72, 71, 110); stroke-opacity: 0.12;" d="M -268.796 102.574 L 225.402 102.574" transform="matrix(1, 0, 0, 1, 885.804345, -199.533272)"></path>
  <path style="fill: none; stroke-linejoin: round; stroke-linecap: round; stroke: rgb(72, 71, 110); stroke-opacity: 0.12;" d="M -268.796 102.574 L 225.402 102.574" transform="matrix(1, 0, 0, 1, 891.576529, 663.408213)"></path>
</svg>