<svg viewBox="83.788 -65.776 90.722 267.318" width="90.722" height="267.318" xmlns="http://www.w3.org/2000/svg">
    <defs></defs>
    <path style="fill: none; stroke-width: 0.5px; stroke: rgb(255, 244, 179); stroke-opacity: 0.7;" d="M 55.404 153.897 L 136.011 153.897 C 136.011 153.897 143.231 153.413 143.479 162.855 C 143.479 162.855 142.941 169.605 137.97 169.853 L 110.658 169.853" transform="matrix(0, -1, 1, 0, -62.431408, 261.314411)"></path>
    <path style="fill: none; stroke-width: 0.5px; stroke: rgb(255, 244, 179); stroke-opacity: 0.7;" d="M 72.053 156.425 L 169.032 156.425" transform="matrix(0, -1, 1, 0, -35.882504, 276.967503)"></path>
    <path style="fill: none; stroke-width: 0.5px; stroke: rgb(255, 244, 179); stroke-opacity: 0.7;" d="M 32.644 16.649 L 19.437 16.649 C 19.437 16.649 11.882 18.849 12.979 24.755 C 13.486 27.48 13.994 31.029 19.437 31.372 L 84.144 31.372 L 97.804 17.713 L 161.701 17.713 L 190.237 17.713" transform="matrix(0, -1, 1, 0, 73.147568, 121.168568)"></path>
    <path style="fill: none; stroke-width: 0.5px; stroke: rgb(255, 244, 179); stroke-opacity: 0.7;" d="M 34.405 36.931 L 180.337 36.931" transform="matrix(0, -1, 1, 0, 70.440002, 144.302002)"></path>
    <path style="fill: none; stroke-width: 0.5px; stroke: rgb(255, 244, 179); stroke-opacity: 0.7;" d="M 70.674 -1.853 L 137.605 -1.853" transform="matrix(0, -1, 1, 0, 105.9925, 102.2865)"></path>
    <path style="fill: none; stroke-width: 0.5px; stroke: rgb(255, 244, 179); stroke-opacity: 0.7;" d="M 65.604 -5.929 L 134.723 -5.929" transform="matrix(0, -1, 1, 0, 106.092502, 94.234502)"></path>
    <path style="fill: none; stroke-width: 0.5px; stroke: rgb(255, 244, 179); stroke-opacity: 0.7;" d="M 61.49 -9.794 L 130.387 -9.794" transform="matrix(0, -1, 1, 0, 105.732495, 86.144496)"></path>
    <circle style="fill: none; stroke-width: 0.5px; stroke: rgb(255, 244, 179); stroke-opacity: 0.7;" cx="21.905" cy="37.413" r="9.036" transform="matrix(0, -1, 1, 0, 67.720207, 190.206345)"></circle>
    <line style="fill: none; stroke-width: 0.5px; stroke: rgb(255, 244, 179); stroke-opacity: 0.7;" x1="51.449" y1="121.252" x2="213.454" y2="121.252" transform="matrix(0, -1, 1, 0, 12.214001, 254.717999)"></line>
    <path style="fill: none; stroke-width: 0.5px; stroke: rgb(255, 244, 179); stroke-opacity: 0.7;" d="M 81.092 43.601 L 168.614 43.601 C 168.614 43.601 174.412 44.676 175.904 50.889 C 175.904 50.889 175.485 59.262 169.272 60.008" transform="matrix(0, -1, 1, 0, 76.693504, 180.302505)"></path>
    <path style="fill: none; stroke-width: 0.5px; stroke: rgb(255, 244, 179); stroke-opacity: 0.7;" d="M 53.184 102.681 L 200.825 102.681" transform="matrix(0, -1, 1, 0, 24.323494, 229.685493)"></path>
    <path style="fill: none; stroke-width: 0.5px; stroke: rgb(255, 244, 179); stroke-opacity: 0.7;" d="M 99.445 -39.004 L 167.44 -39.004" transform="matrix(0, -1, 1, 0, 172.446503, 94.438499)"></path>
    <circle style="fill: none; stroke-width: 0.5px; stroke: rgb(255, 244, 179); stroke-opacity: 0.7;" cx="174.026" cy="77.679" r="9.036" transform="matrix(0, -1, 1, 0, 64.626305, 201.894806)"></circle>
    <circle style="fill: none; stroke-width: 0.5px; stroke: rgb(255, 244, 179); stroke-opacity: 0.7;" cx="228.764" cy="54.483" r="6.39" transform="matrix(0, -1, 1, 0, 66.4086, 206.100693)"></circle>
    <path style="fill: none; stroke-width: 0.5px; stroke: rgb(255, 244, 179); stroke-opacity: 0.7;" d="M 98.786 81.074 C 104.991 81.07 108.874 87.784 105.775 93.161 C 104.687 95.048 102.881 96.415 100.769 96.948 C 96.773 97.961 95.371 102.92 98.246 105.876 C 101.119 108.83 106.116 107.567 107.237 103.599 C 107.301 103.369 107.351 103.137 107.385 102.902 C 109.144 90.708 123.661 84.666 133.515 92.386 C 133.626 92.473 133.735 92.561 133.843 92.649 C 143.776 100.883 158.317 100.313 167.578 91.327 C 177.199 81.989 193.174 85.047 198.665 97.28 C 202.538 105.906 214.295 107.105 219.829 99.439 C 221.26 97.457 222.067 95.092 222.147 92.649" transform="matrix(0, -1, 1, 0, 65.149204, 253.723141)"></path>
    <path style="fill: none; stroke-width: 0.5px; stroke: rgb(255, 244, 179); stroke-opacity: 0.7;" d="M 173.491 181.794 L 118.999 181.794" transform="matrix(0, -1, 1, 0, -35.549007, 328.039005)"></path>
    <line style="fill: none; stroke-width: 0.5px; stroke: rgb(255, 244, 179); stroke-opacity: 0.7;" x1="189.696" y1="181.502" x2="147.246" y2="181.502" transform="matrix(0, -1, 1, 0, -13.030998, 349.973)"></line>
    <line style="fill: none; stroke-width: 0.5px; stroke: rgb(255, 244, 179); stroke-opacity: 0.7;" x1="132.998" y1="-32.633" x2="203.945" y2="-32.633" transform="matrix(0, -1, 1, 0, 201.104504, 135.838505)"></line>
    <line style="fill: none; stroke-width: 0.5px; stroke: rgb(255, 244, 179); stroke-opacity: 0.7;" x1="104.585" y1="-29.558" x2="187.376" y2="-29.558" transform="matrix(0, -1, 1, 0, 175.538504, 116.422503)"></line>
    <circle style="fill: none; stroke-width: 0.5px; stroke: rgb(255, 244, 179); stroke-opacity: 0.7;" cx="228.764" cy="54.483" r="6.39" transform="matrix(0, -1, 1, 0, 94.87088, 335.437347)"></circle>
    <circle style="fill: none; stroke-width: 0.5px; stroke: rgb(255, 244, 179); stroke-opacity: 0.7;" cx="228.764" cy="54.483" r="6.39" transform="matrix(0, -1, 1, 0, 109.864799, 300.776508)"></circle>
    <circle style="fill: none; stroke-width: 0.5px; stroke: rgb(255, 244, 179); stroke-opacity: 0.7;" cx="62.675" cy="105.617" r="5.265" transform="matrix(0, -1, 1, 0, 62.479645, 193.338959)"></circle>
    <path style="fill: none; stroke-width: 0.5px; stroke: rgb(255, 244, 179); stroke-opacity: 0.7;" d="M 164.993 13.001 C 164.993 13.001 156.708 12.249 157.16 5.47 C 157.612 -1.31 165.445 -1.309 165.445 -1.309" transform="matrix(0, -1, 1, 0, 155.447587, 167.139587)"></path>
    <path d="M 90.701 -68.427 C 90.701 -66.183 90.712 -64.054 90.712 -61.822 C 90.712 -60.813 90.323 -57.794 90.323 -58.802 C 90.323 -60.747 90.701 -62.496 90.701 -64.464 C 90.701 -65.471 90.701 -68.49 90.701 -67.484 C 90.701 -37.223 90.701 -6.706 90.701 23.295 C 93.505 26.1 96.404 32.281 99.948 34.053 C 101.34 34.749 103.753 35.97 104.855 37.073 C 105.847 38.4 104.593 46.803 103.912 48.166 C 102.838 50.313 103.346 54.338 103.346 57.036 C 103.346 64.312 104.101 71.131 104.101 78.363 C 104.101 85.949 103.912 93.306 103.912 100.633 C 103.912 101.545 103.695 107.427 102.779 107.427 C 96.538 107.427 93.602 112.852 89.38 104.407 C 87.445 100.738 87.115 95.59 87.115 91.196 C 87.115 89.874 85.981 87.233 87.304 87.233 C 87.97 87.233 87.81 90.698 88.058 91.196 C 89.81 94.699 87.876 104.225 90.701 107.049 C 92.507 108.856 94.948 108.04 96.929 107.049 C 97.573 106.727 101.081 107.182 101.081 106.483 C 101.081 102.682 106.626 97.264 105.233 93.083 C 104.615 91.229 105.695 88.158 104.855 86.478 C 102.934 82.636 102.986 70.176 104.101 65.718 C 105.041 61.956 105.897 54.311 104.667 50.619 C 103.332 46.615 106.662 40.267 104.855 36.653 C 103.603 34.147 99.051 31.604 97.118 29.67 C 94.811 27.364 93.211 24.443 90.889 22.121 C 90.058 15.057 92.803 5.214 90.712 -1.659 C 89.384 -5.044 87.341 -9.887 88.625 -13.738 C 90.068 -18.069 90.889 -25.182 90.889 -29.78 C 90.889 -41.124 89.946 -52.638 89.946 -63.94" style="fill: none; stroke-width: 0.5px; stroke: rgb(255, 244, 179); stroke-opacity: 0.7;"></path>
    <path d="M 96.17387303944844 24.176096236799324 C 96.17387390136719 13.843667860240757 96.36260223388672 3.4449109546025127 96.36260223388672 -6.964332580566406 C 96.36260223388672 -11.924102130477515 95.55731675719504 -17.948245359723522 97.11752319335938 -22.6289119720459 C 98.41855816486957 -26.53205633259776 96.55133056640625 -34.87243664472648 96.55133056640625 -39.23714065551758 C 96.55133056640625 -39.81058153219319 95.07798224006076 -43.955387115478516 95.98514556884766 -43.955387115478516 C 96.56555927562125 -43.955387115478516 96.36260223388672 -40.63265875363121 96.36260223388672 -39.992061614990234 C 96.36260223388672 -35.706031135374594 95.7964096069336 -31.834642006944026 95.7964096069336 -27.724618911743164 C 95.7964096069336 -11.016961347241182 95.41895294189453 6.030892254393379 95.41895294189453 22.666257858276367" style="fill: none; stroke-width: 0.5px; stroke: rgb(255, 244, 179); stroke-opacity: 0.7;"></path>
    <path d="M 100.13720036242148 -39.9920604208596 C 100.6481848376391 -37.43711377934585 98.96807709556657 -33.271283695556214 100.13719940185547 -30.933027267456055 C 101.79275485216286 -27.62189963527066 100.7033920288086 -23.403196935826337 100.7033920288086 -19.797964096069336 C 100.7033920288086 -11.705988162203903 100.71466369628906 -3.6412799212909093 100.71466369628906 4.548189640045166 C 100.71466369628906 9.344949014539331 100.71466369628906 14.634565509090042 100.71466369628906 19.269119262695312 C 100.71466369628906 20.86458541030233 99.94847106933594 22.608440726990594 99.94847106933594 24.176095962524414 C 99.94847106933594 25.1197452545166 99.94847106933594 27.950693130493164 99.94847106933594 27.007043838500977 C 99.94847106933594 10.403741813721062 100.7033920288086 -5.752540995343459 100.7033920288086 -22.6289119720459 C 100.7033920288086 -26.441243429520707 100.71466369628906 -30.245001738710897 100.71466369628906 -34.14143371582031 C 100.71466369628906 -34.34590561458734 100.7033920288086 -37.91603088378906 100.7033920288086 -37.91603088378906" style="fill: none; stroke-width: 0.5px; stroke: rgb(255, 244, 179); stroke-opacity: 0.7;"></path>
    <path d="M 104.10052768539455 -35.08508373527392 C 104.52751077033116 -30.815362410521605 103.34561157226562 -26.58144333690499 103.34561157226562 -23.006372451782227 C 103.34561157226562 -20.03265861794327 104.07106810769875 -15.716689405940846 103.34561157226562 -12.814958572387695 C 102.755765377049 -10.455651283644032 102.16347803879881 -5.226302679295239 102.96814727783203 -2.8122756481170654 C 104.19818608437832 0.877870295536078 105.30037933277609 13.094787074291265 103.53433990478516 16.626901626586914 C 102.28583576947307 19.123935132771912 103.72306823730469 24.637892602197216 103.72306823730469 27.384504318237305 C 103.72306823730469 27.584198747344868 103.72306823730469 30.792912673950195 103.72306823730469 30.792912673950195 C 103.72306823730469 30.792912673950195 103.53433990478516 26.87463351868697 103.53433990478516 26.62958526611328 C 103.53433990478516 22.81304158276923 104.10052490234375 19.365820946481044 104.10052490234375 15.494522094726562 C 104.10052490234375 -0.060348333147462796 104.47798919677734 -16.443360997273146 104.47798919677734 -32.065406799316406" style="fill: none; stroke-width: 0.5px; stroke: rgb(255, 244, 179); stroke-opacity: 0.7;"></path>
    <path d="M 107.68639526332254 -36.02873309788655 C 110.3959566667809 -23.835863418273313 107.8751220703125 -10.013575117725054 107.8751220703125 2.8496205806732178 C 107.8751220703125 6.379315628605529 108.24364287086411 12.268213264114918 109.76242065429688 15.305791854858398 C 111.91353809324394 19.608059342569387 106.72328139189264 25.83572083583261 108.63004302978516 29.649263381958008 C 110.14289698931222 32.67498659039604 108.89403521056374 39.992447259407335 107.8751220703125 43.0490837097168 C 106.74541944346338 46.43807742353415 107.46412864338888 56.570541002067685 108.81877136230469 59.27985382080078 C 110.45726247028325 62.5568691549838 108.06385803222656 70.62042109523824 108.06385803222656 74.37824249267578 C 108.06385803222656 83.22467105217132 107.68639373779297 92.39288012913697 107.68639373779297 101.17788696289062 C 107.68639373779297 101.98516268924332 108.06385803222656 109.67073059082031 108.06385803222656 109.67073059082031 C 108.06385803222656 109.67073059082031 106.93147277832031 101.48417634259265 106.93147277832031 101.17788696289062 C 106.93147277832031 94.81608385461847 105.15785849749231 88.19194422187854 107.3089370727539 81.73870849609375 C 107.89020322893127 79.99491002756164 106.85671074362031 77.35874797821462 107.68639373779297 75.69934844970703 C 110.14617666701255 70.77968315386927 108.2525863647461 63.673721390792984 108.2525863647461 58.336204528808594 C 108.2525863647461 47.73736222302621 110.77669759297636 37.66975409209367 108.06385803222656 26.818313598632812 C 106.3913949199672 20.128410442260808 109.00750732421875 13.227808764490105 109.00750732421875 6.435488224029541 C 109.00750732421875 4.609718626245831 108.1373550740715 0.7431428995970102 107.3089370727539 -1.1137067079544067 C 106.10323392184979 -3.5251328107451654 108.2525863647461 -7.44381947966845 108.2525863647461 -9.795280456542969 C 108.2525863647461 -18.55509664837526 108.2525863647461 -26.691880600658806 108.2525863647461 -35.2738151550293" style="fill: none; stroke-width: 0.5px; stroke: rgb(255, 244, 179); stroke-opacity: 0.7;"></path>
    <path d="M 114.85813041917854 -24.117786262757008 C 116.9723655878392 -25.703456700104557 120.01763054102948 -30.387513668237236 123.53970336914062 -29.21349334716797 C 125.13141547998919 -28.682924430899863 129.69646669434437 -22.914085636605098 127.31430053710938 -20.731919479370117 C 126.17268792815861 -19.390306870419348 125.33698537950441 -16.667313411190577 124.29462432861328 -15.6249418258667 C 123.39182098431097 -14.722129357546272 119.77063317957233 -16.1883719451835 119.01018524169922 -16.568592071533203 C 116.77277066999908 -17.687288051599687 110.94644188792753 -24.426679037070812 115.23558807373047 -26.571273803710938 C 116.5184572677089 -27.21271488324247 121.21011541845918 -31.73181153771758 123.3509750366211 -29.590951919555664 C 127.15345346522872 -25.788473490948043 127.39315426188843 -18.293438544235688 121.65240478515625 -16.37986183166504 C 119.55929232575146 -15.682160028905226 112.43644833217125 -17.54402120894507 115.23558807373047 -20.343189239501953" style="fill: none; stroke-width: 0.5px; stroke: rgb(255, 244, 179); stroke-opacity: 0.7;"></path>
    <path d="M 135.731 26.058 C 138.249 24.17 141.876 18.591 146.07 19.99 C 147.966 20.622 153.403 27.492 150.765 30.33 C 149.205 31.688 148.21 34.932 146.969 36.173 C 145.894 37.248 141.581 35.502 140.675 35.049 C 138.011 33.717 131.072 25.691 136.18 23.137 C 137.709 22.373 143.296 16.99 145.845 19.54 C 150.374 24.068 150.659 32.995 143.822 35.274 C 141.329 36.105 132.847 33.888 136.18 30.754" style="fill: none; stroke-width: 0.5px; stroke: rgb(255, 244, 179); stroke-opacity: 0.7;"></path>
    <path d="M 114.85813041917854 -24.117786262757008 C 116.9723655878392 -25.703456700104557 120.01763054102948 -30.387513668237236 123.53970336914062 -29.21349334716797 C 125.13141547998919 -28.682924430899863 129.69646669434437 -22.914085636605098 127.31430053710938 -20.731919479370117 C 126.17268792815861 -19.390306870419348 125.33698537950441 -16.667313411190577 124.29462432861328 -15.6249418258667 C 123.39182098431097 -14.722129357546272 119.77063317957233 -16.1883719451835 119.01018524169922 -16.568592071533203 C 116.77277066999908 -17.687288051599687 110.94644188792753 -24.426679037070812 115.23558807373047 -26.571273803710938 C 116.5184572677089 -27.21271488324247 121.21011541845918 -31.73181153771758 123.3509750366211 -29.590951919555664 C 127.15345346522872 -25.788473490948043 127.39315426188843 -18.293438544235688 121.65240478515625 -16.37986183166504 C 119.55929232575146 -15.682160028905226 112.43644833217125 -17.54402120894507 115.23558807373047 -20.343189239501953" style="fill: none; stroke-width: 0.5px; stroke: rgb(255, 244, 179); stroke-opacity: 0.7;" transform="matrix(1, 0, 0, 1, 43.271786, 94.862587)"></path>
    <path d="M 114.85813041917854 -24.117786262757008 C 116.9723655878392 -25.703456700104557 120.01763054102948 -30.387513668237236 123.53970336914062 -29.21349334716797 C 125.13141547998919 -28.682924430899863 129.69646669434437 -22.914085636605098 127.31430053710938 -20.731919479370117 C 126.17268792815861 -19.390306870419348 125.33698537950441 -16.667313411190577 124.29462432861328 -15.6249418258667 C 123.39182098431097 -14.722129357546272 119.77063317957233 -16.1883719451835 119.01018524169922 -16.568592071533203 C 116.77277066999908 -17.687288051599687 110.94644188792753 -24.426679037070812 115.23558807373047 -26.571273803710938 C 116.5184572677089 -27.21271488324247 121.21011541845918 -31.73181153771758 123.3509750366211 -29.590951919555664 C 127.15345346522872 -25.788473490948043 127.39315426188843 -18.293438544235688 121.65240478515625 -16.37986183166504 C 119.55929232575146 -15.682160028905226 112.43644833217125 -17.54402120894507 115.23558807373047 -20.343189239501953" style="fill: none; stroke-width: 0.5px; stroke: rgb(255, 244, 179); stroke-opacity: 0.7;" transform="matrix(1, 0, 0, 1, 26.474827, 129.400154)"></path>
    <path d="M 162.807 129.635 C 164.503 128.363 166.944 124.607 169.769 125.548 C 171.046 125.973 174.706 130.799 172.796 132.51 C 171.88 133.426 171.21 135.609 170.374 136.445 C 169.651 137.168 166.747 135.993 166.137 135.688 C 164.343 134.791 159.671 129.386 163.11 127.667 C 164.139 127.152 167.901 123.529 169.617 125.245 C 172.667 128.295 172.859 134.305 168.256 135.839 C 166.578 136.399 160.866 134.906 163.11 132.661" style="fill: none; stroke-width: 0.5px; stroke: rgb(255, 244, 179); stroke-opacity: 0.7;"></path>
    <path d="M 98.006 166.719 C 100.751 164.81 104.217 159.172 108.456 160.784 C 110.372 161.223 115.867 168.167 112.999 171.035 C 111.625 172.409 110.619 175.686 109.365 176.941 C 108.278 178.028 103.919 176.262 103.005 175.805 C 100.311 174.458 93.298 166.346 98.46 163.766 C 100.005 162.993 105.653 157.553 108.229 160.13 C 112.806 164.707 113.094 173.728 106.185 176.032 C 103.666 176.872 95.091 174.631 98.46 171.262" style="fill: none; stroke-width: 0.5px; stroke: rgb(255, 244, 179); stroke-opacity: 0.7;"></path>
    <path d="M 91.6443560989078 205.0632254144287 C 91.09157252322179 199.5353552220064 93.39494214956802 193.19259208460022 92.02181243896484 187.7000732421875 C 90.77438295354683 181.91035530051545 89.99357232617076 174.3456971059349 92.02181243896484 168.26089477539062 C 92.56941667120934 166.6180599416061 91.07816314697266 163.65888800741118 91.07816314697266 161.84408569335938 C 91.07816314697266 155.74163084961148 91.45562744140625 149.5466977102901 91.45562744140625 143.3485565185547 C 91.45562744140625 136.98619734779012 89.38194846208174 123.71830178205889 94.09784698486328 119.00240325927734 C 96.13071912324956 116.96953112089106 104.20986588627501 117.8999150250802 105.42163848876953 120.3235092163086 C 108.58218033601023 126.64472067655979 107.68639373779297 135.58076694595636 107.68639373779297 142.4049072265625 C 107.68639373779297 143.39425685360797 107.99588025273593 149.64464281742323 107.3089370727539 150.33155822753906 C 106.37052816965448 151.26992919520157 107.68639373779297 147.6953241301266 107.68639373779297 146.3682403564453 C 107.68639373779297 143.60649027010825 107.49766540527344 140.67416094372828 107.49766540527344 137.87539672851562 C 107.49766540527344 131.3052881856471 109.64199992383394 112.74028765321202 97.49497985839844 118.81367492675781 C 90.0855037145225 122.51833811768371 89.94578552246094 133.90385710041917 89.94578552246094 141.4612579345703 C 89.94578552246094 162.49908301978968 91.26689910888672 183.36250807667682 91.26689910888672 204.68576049804688" style="fill: none; stroke-width: 0.5px; stroke: rgb(255, 244, 179); stroke-opacity: 0.7;"></path>
    <path d="M 120.89748633989939 108.55933715889346 C 120.8974838256836 111.81464677881104 122.66482848184445 118.80207008879893 121.08621978759766 121.95915985107422 C 119.37085799047304 125.38974476298881 117.9659624408554 133.06955449723876 119.01018524169922 137.24627685546875 C 121.64350240348158 147.77911970954108 121.27494812011719 162.2975318303373 121.27494812011719 173.29368591308594 C 121.27494812011719 180.72176955949004 120.8974838256836 187.81787582337464 120.8974838256836 195.1863555908203 C 120.8974838256836 197.76566060384113 120.8974838256836 200.34496561686197 120.8974838256836 202.9242706298828 C 120.8974838256836 204.12121726771872 121.464736729529 207.6456673184556 121.08621978759766 206.51014709472656 C 119.81523532956457 202.69729647626303 119.32514360344491 195.05898874594482 120.331298828125 191.03428649902344 C 120.72248299347775 189.46951821015838 121.87548749690436 186.45347559233628 121.46367645263672 184.8061981201172 C 119.82613770198016 178.255910721586 123.29984129048951 170.12067506426703 121.27494812011719 164.04591369628906 C 120.12115406389404 160.7844848851789 121.81325413921863 156.16845568986383 121.08621978759766 152.5334014892578 C 119.8342178390383 146.27359418836397 120.14257049560547 139.37316270292268 120.14257049560547 132.90548706054688 C 120.14257049560547 128.58765649543795 118.49134403948256 119.03352438441378 120.331298828125 115.3536148071289 C 120.62014125065278 114.77592996207335 120.331298828125 110.06917572021484 120.331298828125 110.06917572021484" style="fill: none; stroke-width: 0.5px; stroke: rgb(255, 244, 179); stroke-opacity: 0.7;"></path>
    <path d="M 119.5763772322417 98.61954851383074 C 119.88443060894183 94.6148344529141 119.95699658700471 89.96012291009689 119.38764953613281 85.97464752197266 C 119.14263737697031 84.25954259846793 117.3966931301789 80.72006741395859 118.2552719116211 78.80290985107422 C 120.13255801671134 75.04833764089372 117.87984171580314 69.36032989409448 119.19892120361328 65.40309143066406 C 121.58003993512449 58.25973523613043 121.45311818293284 45.911197483089 119.9538345336914 38.41471862792969 C 118.60220428889673 31.65651276393346 118.28195672783818 22.83215610550647 119.9538345336914 16.144594192504883 C 120.62855686105947 13.445684426156465 119.89564507526312 10.00381894345708 121.46367645263672 7.651750087738037 C 125.29668753860614 1.9021801945416419 126.0731383058359 2.393972739476542 132.22128295898438 4.443342208862305 C 133.76825764469612 4.95899739748685 134.6900618399461 6.014389618401182 135.05223083496094 7.463019847869873 C 135.26801657948278 8.326135567065961 134.54000652781826 10.10523796081543 135.4296875 10.10523796081543 C 136.1872237521828 10.10523796081543 134.70528439712857 7.30482895002331 135.24095153808594 7.840479850769043 C 135.71292044582358 8.312434449480874 136.35868527712122 11.004977293328857 136.18460083007812 10.482698440551758 C 135.32857366403687 7.914491493750876 126.56584941383863 -1.992930428224657 124.48335266113281 4.254612445831299 C 122.67256144876069 9.68703183402937 121.2076214366733 15.092735974904967 119.76510620117188 20.86284065246582 C 118.86249201801283 24.473324751421178 119.92079480580172 28.02501893489429 120.72002716064453 31.62044334411621 C 121.3987849655052 36.893034578311415 119.60649223151881 42.68721907684805 120.8974838256836 47.85121154785156 C 122.41898063728854 53.937229547734 119.19892120361328 62.46250021868978 119.19892120361328 68.61149597167969 C 119.19892120361328 73.11986379557841 118.9453646680536 78.60838447397485 120.331298828125 82.76624298095703 C 121.32461778550392 85.7462400082847 119.65809485319869 89.72405815713576 121.08621978759766 92.58019256591797 C 122.10384666251164 94.61536404338156 119.9538345336914 96.72640494114235 119.9538345336914 98.05335998535156" style="fill: none; stroke-width: 0.5px; stroke: rgb(255, 244, 179); stroke-opacity: 0.7;"></path>
    <path d="M 127.126 29.922 C 127.454 31.729 127.527 33.629 127.88 35.395 C 128.101 36.497 128.069 37.631 128.069 38.792 C 128.069 40.754 129.831 44.077 128.069 44.077 C 126.771 44.077 125.616 35.578 125.616 34.074 C 125.616 33.521 126.484 30.922 127.126 31.243 C 127.864 31.612 127.314 36.646 127.314 37.471 C 127.314 43.517 127.314 49.046 127.314 55.023 C 127.314 59.144 128.635 63.261 128.635 67.29 C 128.635 67.605 129.085 71.254 128.824 71.254 C 128.554 71.254 127.88 63.909 127.88 62.761 C 127.88 61.69 127.692 58.481 127.692 59.552 C 127.692 64.353 130.272 71.25 128.635 76.161 C 127.058 80.894 126.937 85.48 126.937 90.693 C 126.937 94.405 126.937 98.116 126.937 101.828 C 126.937 103.075 127.126 104.195 127.126 105.414 C 127.126 105.98 127.126 107.679 127.126 107.112 C 127.126 100.029 124.217 90.171 126.559 83.144 C 126.868 82.218 126.831 75.972 127.314 75.972 C 128.623 75.972 127.503 83.578 127.503 84.276 C 127.503 89.961 127.157 95.665 125.804 101.073 C 125.274 103.195 123.319 108.747 124.483 111.076 C 127.174 116.457 126.748 123.787 126.748 129.949 C 126.748 132.119 127.692 134.137 127.692 136.366 C 127.692 137.437 128.638 140.331 127.88 139.574 C 121.537 133.231 127.503 120.312 127.503 113.152 C 127.503 112.137 127.682 115.177 127.88 116.171 C 128.228 117.909 127.88 120.056 127.88 121.833 C 127.88 126.905 126.937 132.244 126.937 137.875 C 126.748 143.56 127.126 148.437 127.126 153.309 C 127.126 156.519 126.748 159.681 126.748 162.935 C 126.748 166.084 126.526 169.374 127.126 172.371 C 127.23 172.896 126.932 177.084 126.748 176.901 C 125.588 175.74 126.937 170.092 126.937 168.785 C 126.937 161.319 130.069 152.137 127.692 145.005 C 127.285 143.785 125.874 136.135 128.258 136.135" style="fill: none; stroke-width: 0.5px; stroke: rgb(255, 244, 179); stroke-opacity: 0.7;"></path>
    <path d="M 132.976 202.568 C 133.539 196.374 131.611 188.824 132.787 182.94 C 134.704 173.356 135.028 160.739 133.165 151.422 C 131.851 144.853 134.209 137.003 132.033 130.473 C 131.594 129.157 132.843 126.852 133.165 125.566 C 134.144 121.649 134.335 115.373 133.542 111.411 C 131.509 101.247 134.707 91.73 133.731 81.969 C 133.147 76.126 131.326 67.34 134.109 61.775 C 134.486 57.995 135.552 52.406 134.675 48.019 C 134.363 46.458 133.731 44.885 133.731 43.301 C 133.731 42.483 133.731 40.029 133.731 40.847 C 133.731 45.987 134.297 51.235 134.297 56.512 C 134.297 57.959 134.932 61.281 134.297 62.551 C 133.665 63.816 133.92 67.188 133.92 68.591 C 133.92 72.83 132.645 78.401 133.731 82.745 C 135.174 88.516 132.612 95.996 134.486 101.618 C 135.049 103.306 135.25 106.497 134.675 108.224 C 133.278 112.415 134.675 119.228 134.675 123.7 C 134.675 124.626 135.24 128.23 134.675 128.795 C 133.625 129.845 133.897 133.04 133.542 134.457 C 132.274 139.53 132.787 145.433 132.787 150.877 C 134.574 154.723 133.354 162.142 133.354 167.003 C 133.354 178.949 133.165 191.637 133.165 202.861 Z" style="fill: none; stroke-width: 0.5px; stroke: rgb(255, 244, 179); stroke-opacity: 0.7;"></path>
    <path d="M 146.37601913044043 208.3345278459428 C 146.3760223388672 200.80145334481534 148.00873068816998 191.65204852481207 146.18728637695312 184.36582946777344 C 145.57355166715732 181.91074176020973 145.1484395038594 176.72473299729148 145.99856567382812 174.17442321777344 C 147.12660055200436 170.79040978179574 145.23089970659242 166.474627733767 146.3760223388672 163.0393524169922 C 148.35264345852306 157.10964886246464 146.29982508855423 152.73542271418015 150.71681213378906 148.3184356689453 C 157.75131887136712 141.28392893136726 163.41506272592437 158.0113407073503 169.96725463867188 154.73524475097656 C 171.22737245806854 154.10518584127823 171.96493098659107 151.64434540552588 172.79820251464844 150.3944549560547 C 173.55322840397758 149.26193138312516 169.93897404410575 147.54938146995872 169.21234130859375 147.18605041503906 C 166.305107943792 145.7323749697857 156.75616455078125 144.59550528723256 156.75616455078125 139.82557678222656 C 156.75616455078125 132.4209932085102 155.29565769238363 125.09581760358797 157.1336212158203 117.74418640136719 C 158.2949771551359 113.09890348280707 165.50784895321593 104.29564524774634 162.79551696777344 98.87120056152344 C 159.2190793710534 91.7186145133333 154.1868712782859 83.49811714492489 152.2266387939453 75.65742492675781 C 151.15472947287597 71.36991763390917 153.54776000976562 67.70229462507865 153.54776000976562 63.7674446105957" style="fill: none; stroke-width: 0.5px; stroke: rgb(255, 244, 179); stroke-opacity: 0.7;"></path>
    <path d="M 153.925 65.068 C 156.522 55.977 164.986 53.325 169.024 45.251 C 170.358 42.581 170.721 32.606 165.815 32.606 C 164.902 32.606 157.7 30.719 157.7 30.719 C 157.7 30.719 165.224 32.283 165.626 32.417 C 169.091 33.572 170.156 39.779 169.024 43.175 C 167.354 48.184 165.169 54.201 161.286 58.085 C 158.911 60.459 154.699 60.887 152.793 63.746 C 150.989 66.452 152.003 69.856 150.717 72.428 C 149.697 74.468 151.259 79.528 151.849 81.298 C 154.447 89.093 159.962 94.12 162.041 102.436 C 164.057 110.701 153.299 116.282 156.756 123.196 C 157.088 123.86 157.281 120.76 156.756 123.385 C 156.178 126.275 153.487 132.512 155.058 135.653 C 157.78 141.097 158.215 144.969 164.494 148.109 C 166.885 149.304 168.982 150.164 171.288 151.317 C 171.479 151.412 172.498 153.204 172.232 153.204 C 170.765 153.204 168.761 158.357 166.759 157.356 C 162.544 155.249 158.59 146.302 152.604 148.297 C 148.97 149.509 147.508 151.603 147.508 155.469 C 147.508 155.625 147.32 160.942 147.32 160.942 C 147.131 170.808 147.697 179.907 147.697 189.42 C 147.697 190.603 149.05 197.315 148.075 198.29 C 147.139 199.225 146.942 201.912 146.942 203.197" style="fill: none; stroke-width: 0.5px; stroke: rgb(255, 244, 179); stroke-opacity: 0.7;"></path>
    <path d="M 168.26868434305348 160.73265295910954 C 167.00346521739502 170.85485456608313 168.0799560546875 179.13082639626782 168.0799560546875 189.23086547851562 C 168.0799560546875 192.5021820068359 168.0799560546875 195.77349853515625 168.0799560546875 199.04481506347656 C 168.0799560546875 200.11428324381512 168.0799560546875 201.1837514241536 168.0799560546875 202.2532196044922 C 168.0799560546875 202.8194122314453 168.0799560546875 204.5179901123047 168.0799560546875 203.95179748535156 C 168.0799560546875 193.3414493083289 169.0236053466797 182.12119765111066 169.0236053466797 171.11279296875 C 169.0236053466797 170.37375422568294 168.64614868164062 160.92138671875 168.64614868164062 160.92138671875" style="fill: none; stroke-width: 0.5px; stroke: rgb(255, 244, 179); stroke-opacity: 0.7;"></path>
    <path d="M 133.54238779890863 -67.79826931861665 C 133.54238891601562 -59.72919554295839 133.9198455810547 -51.80620130349578 133.9198455810547 -43.640846252441406 C 133.9198455810547 -37.954668248849025 133.16493225097656 -32.312086097720076 133.16493225097656 -26.843887329101562 C 133.16493225097656 -21.473595225521727 134.10858154296875 -16.41895481444737 134.10858154296875 -11.17930793762207 C 134.10858154296875 -9.507739295840834 134.69398125873627 -7.443091738511641 133.9198455810547 -5.894871234893799 C 133.54237651835524 -5.139957904839165 132.7874755859375 -2.7860883419684295 132.7874755859375 -3.630112648010254 C 132.7874755859375 -9.001861628851604 133.36332172753808 -16.68160667880565 135.05223083496094 -21.748180389404297 C 135.91103051974324 -24.32450133318075 134.00105958714346 -33.47562911325283 132.7874755859375 -35.90291976928711 C 131.1995302696708 -39.07897089111916 133.16493225097656 -46.780160198123376 133.16493225097656 -50.81258010864258 C 133.16493225097656 -55.03256740502405 132.9761962890625 -59.303348530679 132.9761962890625 -63.457481384277344 C 132.9761962890625 -64.07959211107932 133.54238891601562 -67.2320785522461 133.54238891601562 -67.2320785522461" style="fill: none; stroke-width: 0.5px; stroke: rgb(255, 244, 179); stroke-opacity: 0.7;"></path>
    <path d="M 145.80982951287285 -67.23207970104907 C 147.8625145062829 -62.10032507615149 147.86044498767393 -57.719185436887116 146.18728637695312 -52.69987869262695 C 145.24456565143902 -49.87181178659206 146.79296537429636 -46.362168418636735 145.432373046875 -43.640846252441406 C 144.31997315747583 -41.41593404642269 145.80982971191406 -36.441543133905284 145.80982971191406 -34.20435333251953 C 145.80982971191406 -24.953980262893516 146.75347900390625 -15.999074393480184 146.75347900390625 -6.838520526885986 C 146.75347900390625 -2.0927593283772783 146.3760223388672 2.9575093896989317 146.3760223388672 7.504950046539307 C 146.3760223388672 7.980969247386122 146.18728637695312 12.034466743469238 146.18728637695312 12.034466743469238 C 146.18728637695312 12.034466743469238 146.18728637695312 7.933765751603968 146.18728637695312 7.504950046539307 C 146.18728637695312 3.0173424761621233 147.81327668388082 -2.2946230194927892 146.9422149658203 -6.6497907638549805 C 142.93088463131062 -26.70579382611416 146.3760223388672 -47.77926514000901 146.3760223388672 -67.98699951171875" style="fill: none; stroke-width: 0.5px; stroke: rgb(255, 244, 179); stroke-opacity: 0.7;"></path>
    <path d="M 168.33159622042052 -66.43522471895956 C 168.94272024337084 -62.15742947345168 166.97615588749895 -56.53537698709732 168.3315887451172 -52.469215393066406 C 169.71132245000214 -48.33015371305715 171.55719114551383 -41.59147501543908 170.40762329101562 -36.99336624145508 C 169.49476842461863 -33.342075929073985 167.22760731563753 -26.339199071898687 168.52032470703125 -22.461164474487305 C 170.66532297492395 -16.026364765242988 168.52032470703125 -9.015006521170193 168.52032470703125 -2.2670681476593018 C 168.52032470703125 0.43402630109389095 169.298424730977 4.858388016235569 168.1428680419922 7.1694254875183105 C 164.39444174244127 14.66603185843934 156.07739019561134 8.907538345633519 154.17684936523438 3.2060983180999756 C 154.1426326092768 3.1034513352460324 154.17684936523438 1.507529377937317 154.17684936523438 1.507529377937317 C 154.17684936523438 1.507529377937317 154.3739724147753 4.921411838959505 154.5543212890625 5.2821269035339355 C 155.3915279256823 6.9566205602535645 157.99747372626834 10.377833366394043 160.02748107910156 10.377833366394043 C 164.67711515346735 10.377833366394043 165.95805931610494 5.499869078348471 167.95413208007812 1.507529377937317 C 169.8916889803224 -2.3677729027538446 166.0164546452464 -9.149443014186339 167.95413208007812 -13.024670600891113 C 170.42774573504897 -17.97173542307351 167.42736031844893 -23.939661994330965 168.7090606689453 -29.066709518432617 C 170.3432901771134 -35.60394136862456 168.1428680419922 -42.75054758889938 168.1428680419922 -48.694618225097656 C 168.1428680419922 -54.672881727626006 168.7090606689453 -60.38831611274408 168.7090606689453 -66.43522644042969" style="fill: none; stroke-width: 0.5px; stroke: rgb(255, 244, 179); stroke-opacity: 0.7;"></path>
  </svg>