<svg viewBox="83.788 -65.776 90.522 267.318" width="90.522" height="267.318" xmlns="http://www.w3.org/2000/svg" style="">
    <defs></defs>
    <path style="fill: none; stroke: rgb(52, 53, 92); stroke-opacity: 0.52;" d="M 55.404 153.897 L 136.011 153.897 C 136.011 153.897 143.231 153.413 143.479 162.855 C 143.479 162.855 142.941 169.605 137.97 169.853 L 110.658 169.853" transform="matrix(0, -1, 1, 0, -62.431408, 261.314411)" class="ESLCGBJw_0"></path>
    <path style="fill: none; stroke: rgb(52, 53, 92); stroke-opacity: 0.52;" d="M 72.053 156.425 L 169.032 156.425" transform="matrix(0, -1, 1, 0, -35.882504, 276.967503)" class="ESLCGBJw_1"></path>
    <path style="fill: none; stroke: rgb(52, 53, 92); stroke-opacity: 0.52;" d="M 32.644 16.649 L 19.437 16.649 C 19.437 16.649 11.882 18.849 12.979 24.755 C 13.486 27.48 13.994 31.029 19.437 31.372 L 84.144 31.372 L 97.804 17.713 L 161.701 17.713 L 190.237 17.713" transform="matrix(0, -1, 1, 0, 73.147568, 121.168568)" class="ESLCGBJw_2"></path>
    <path style="fill: none; stroke: rgb(52, 53, 92); stroke-opacity: 0.52;" d="M 34.405 36.931 L 180.337 36.931" transform="matrix(0, -1, 1, 0, 70.440002, 144.302002)" class="ESLCGBJw_3"></path>
    <path style="fill: none; stroke: rgb(52, 53, 92); stroke-opacity: 0.52;" d="M 70.674 -1.853 L 137.605 -1.853" transform="matrix(0, -1, 1, 0, 105.9925, 102.2865)" class="ESLCGBJw_4"></path>
    <path style="fill: none; stroke: rgb(52, 53, 92); stroke-opacity: 0.52;" d="M 65.604 -5.929 L 134.723 -5.929" transform="matrix(0, -1, 1, 0, 106.092502, 94.234502)" class="ESLCGBJw_5"></path>
    <path style="fill: none; stroke: rgb(52, 53, 92); stroke-opacity: 0.52;" d="M 61.49 -9.794 L 130.387 -9.794" transform="matrix(0, -1, 1, 0, 105.732495, 86.144496)" class="ESLCGBJw_6"></path>
    <path style="fill: none; stroke: rgb(52, 53, 92); stroke-opacity: 0.7;" transform="matrix(0, -1, 1, 0, 67.720207, 190.206345)" d="M12.869000000000002,37.413A9.036,9.036 0,1,1 30.941000000000003,37.413A9.036,9.036 0,1,1 12.869000000000002,37.413" class="ESLCGBJw_7"></path>
    <path style="fill: none; stroke: rgb(52, 53, 92); stroke-opacity: 0.52;" transform="matrix(0, -1, 1, 0, 12.214001, 254.717999)" d="M51.449,121.252L213.454,121.252" class="ESLCGBJw_8"></path>
    <path style="fill: none; stroke: rgb(52, 53, 92); stroke-opacity: 0.52;" d="M 81.092 43.601 L 168.614 43.601 C 168.614 43.601 174.412 44.676 175.904 50.889 C 175.904 50.889 175.485 59.262 169.272 60.008" transform="matrix(0, -1, 1, 0, 76.693504, 180.302505)" class="ESLCGBJw_9"></path>
    <path style="fill: none; stroke: rgb(52, 53, 92); stroke-opacity: 0.52;" d="M 53.184 102.681 L 200.825 102.681" transform="matrix(0, -1, 1, 0, 24.323494, 229.685493)" class="ESLCGBJw_10"></path>
    <path style="fill: none; stroke: rgb(52, 53, 92); stroke-opacity: 0.52;" d="M 99.445 -39.004 L 167.44 -39.004" transform="matrix(0, -1, 1, 0, 172.446503, 94.438499)" class="ESLCGBJw_11"></path>
    <path style="fill: none; stroke: rgb(52, 53, 92); stroke-opacity: 0.7;" transform="matrix(0, -1, 1, 0, 64.626305, 201.894806)" d="M164.99,77.679A9.036,9.036 0,1,1 183.062,77.679A9.036,9.036 0,1,1 164.99,77.679" class="ESLCGBJw_12"></path>
    <path style="fill: none; stroke: rgb(52, 53, 92); stroke-opacity: 0.7;" transform="matrix(0, -1, 1, 0, 66.4086, 206.100693)" d="M222.37400000000002,54.483A6.39,6.39 0,1,1 235.154,54.483A6.39,6.39 0,1,1 222.37400000000002,54.483" class="ESLCGBJw_13"></path>
    <path style="fill: none; stroke: rgb(52, 53, 92); stroke-opacity: 0.52;" d="M 98.786 81.074 C 104.991 81.07 108.874 87.784 105.775 93.161 C 104.687 95.048 102.881 96.415 100.769 96.948 C 96.773 97.961 95.371 102.92 98.246 105.876 C 101.119 108.83 106.116 107.567 107.237 103.599 C 107.301 103.369 107.351 103.137 107.385 102.902 C 109.144 90.508 123.661 84.666 133.515 92.386 C 133.626 92.473 133.735 92.561 133.843 92.649 C 143.776 100.883 158.317 100.313 167.578 91.327 C 177.199 81.989 193.174 85.047 198.665 97.28 C 202.538 105.906 214.295 107.105 219.829 99.439 C 221.26 97.457 222.067 95.092 222.147 92.649" transform="matrix(0, -1, 1, 0, 65.149204, 253.723141)" class="ESLCGBJw_14"></path>
    <path style="fill: none; stroke: rgb(52, 53, 92); stroke-opacity: 0.52;" d="M 173.491 181.794 L 118.999 181.794" transform="matrix(0, -1, 1, 0, -35.549007, 328.039005)" class="ESLCGBJw_15"></path>
    <path style="fill: none; stroke: rgb(52, 53, 92); stroke-opacity: 0.52;" transform="matrix(0, -1, 1, 0, -13.030998, 349.973)" d="M189.696,181.502L147.246,181.502" class="ESLCGBJw_16"></path>
    <path style="fill: none; stroke: rgb(52, 53, 92); stroke-opacity: 0.52;" transform="matrix(0, -1, 1, 0, 201.104504, 135.838505)" d="M132.998,-32.633L203.945,-32.633" class="ESLCGBJw_17"></path>
    <path style="fill: none; stroke: rgb(52, 53, 92); stroke-opacity: 0.52;" transform="matrix(0, -1, 1, 0, 175.538504, 116.422503)" d="M104.585,-29.558L187.376,-29.558" class="ESLCGBJw_18"></path>
    <path style="fill: none; stroke: rgb(52, 53, 92); stroke-opacity: 0.7;" transform="matrix(0, -1, 1, 0, 94.87088, 335.437347)" d="M222.37400000000002,54.483A6.39,6.39 0,1,1 235.154,54.483A6.39,6.39 0,1,1 222.37400000000002,54.483" class="ESLCGBJw_19"></path>
    <path style="fill: none; stroke: rgb(52, 53, 92); stroke-opacity: 0.7;" transform="matrix(0, -1, 1, 0, 109.864799, 300.576508)" d="M222.37400000000002,54.483A6.39,6.39 0,1,1 235.154,54.483A6.39,6.39 0,1,1 222.37400000000002,54.483" class="ESLCGBJw_20"></path>
    <path style="fill: none; stroke: rgb(52, 53, 92); stroke-opacity: 0.7;" transform="matrix(0, -1, 1, 0, 62.479645, 193.338959)" d="M57.41,105.617A5.265,5.265 0,1,1 67.94,105.617A5.265,5.265 0,1,1 57.41,105.617" class="ESLCGBJw_21"></path>
    <path style="fill: none; stroke: rgb(52, 53, 92); stroke-opacity: 0.52;" d="M 164.993 13.001 C 164.993 13.001 156.708 12.249 157.16 5.47 C 157.612 -1.31 165.445 -1.309 165.445 -1.309" transform="matrix(0, -1, 1, 0, 155.447587, 167.139587)" class="ESLCGBJw_22"></path>
  <style data-made-with="vivus-instant">.ESLCGBJw_0{stroke-dasharray:131 133;stroke-dashoffset:132;animation:ESLCGBJw_draw_0 7200ms linear 0ms infinite,ESLCGBJw_fade 7200ms linear 0ms infinite;}.ESLCGBJw_1{stroke-dasharray:97 99;stroke-dashoffset:98;animation:ESLCGBJw_draw_1 7200ms linear 0ms infinite,ESLCGBJw_fade 7200ms linear 0ms infinite;}.ESLCGBJw_2{stroke-dasharray:212 214;stroke-dashoffset:213;animation:ESLCGBJw_draw_2 7200ms linear 0ms infinite,ESLCGBJw_fade 7200ms linear 0ms infinite;}.ESLCGBJw_3{stroke-dasharray:146 148;stroke-dashoffset:147;animation:ESLCGBJw_draw_3 7200ms linear 0ms infinite,ESLCGBJw_fade 7200ms linear 0ms infinite;}.ESLCGBJw_4{stroke-dasharray:67 69;stroke-dashoffset:68;animation:ESLCGBJw_draw_4 7200ms linear 0ms infinite,ESLCGBJw_fade 7200ms linear 0ms infinite;}.ESLCGBJw_5{stroke-dasharray:70 72;stroke-dashoffset:71;animation:ESLCGBJw_draw_5 7200ms linear 0ms infinite,ESLCGBJw_fade 7200ms linear 0ms infinite;}.ESLCGBJw_6{stroke-dasharray:69 71;stroke-dashoffset:70;animation:ESLCGBJw_draw_6 7200ms linear 0ms infinite,ESLCGBJw_fade 7200ms linear 0ms infinite;}.ESLCGBJw_7{stroke-dasharray:57 59;stroke-dashoffset:58;animation:ESLCGBJw_draw_7 7200ms linear 0ms infinite,ESLCGBJw_fade 7200ms linear 0ms infinite;}.ESLCGBJw_8{stroke-dasharray:163 165;stroke-dashoffset:164;animation:ESLCGBJw_draw_8 7200ms linear 0ms infinite,ESLCGBJw_fade 7200ms linear 0ms infinite;}.ESLCGBJw_9{stroke-dasharray:111 113;stroke-dashoffset:112;animation:ESLCGBJw_draw_9 7200ms linear 0ms infinite,ESLCGBJw_fade 7200ms linear 0ms infinite;}.ESLCGBJw_10{stroke-dasharray:148 150;stroke-dashoffset:149;animation:ESLCGBJw_draw_10 7200ms linear 0ms infinite,ESLCGBJw_fade 7200ms linear 0ms infinite;}.ESLCGBJw_11{stroke-dasharray:68 70;stroke-dashoffset:69;animation:ESLCGBJw_draw_11 7200ms linear 0ms infinite,ESLCGBJw_fade 7200ms linear 0ms infinite;}.ESLCGBJw_12{stroke-dasharray:57 59;stroke-dashoffset:58;animation:ESLCGBJw_draw_12 7200ms linear 0ms infinite,ESLCGBJw_fade 7200ms linear 0ms infinite;}.ESLCGBJw_13{stroke-dasharray:41 43;stroke-dashoffset:42;animation:ESLCGBJw_draw_13 7200ms linear 0ms infinite,ESLCGBJw_fade 7200ms linear 0ms infinite;}.ESLCGBJw_14{stroke-dasharray:189 191;stroke-dashoffset:190;animation:ESLCGBJw_draw_14 7200ms linear 0ms infinite,ESLCGBJw_fade 7200ms linear 0ms infinite;}.ESLCGBJw_15{stroke-dasharray:55 57;stroke-dashoffset:56;animation:ESLCGBJw_draw_15 7200ms linear 0ms infinite,ESLCGBJw_fade 7200ms linear 0ms infinite;}.ESLCGBJw_16{stroke-dasharray:43 45;stroke-dashoffset:44;animation:ESLCGBJw_draw_16 7200ms linear 0ms infinite,ESLCGBJw_fade 7200ms linear 0ms infinite;}.ESLCGBJw_17{stroke-dasharray:71 73;stroke-dashoffset:72;animation:ESLCGBJw_draw_17 7200ms linear 0ms infinite,ESLCGBJw_fade 7200ms linear 0ms infinite;}.ESLCGBJw_18{stroke-dasharray:83 85;stroke-dashoffset:84;animation:ESLCGBJw_draw_18 7200ms linear 0ms infinite,ESLCGBJw_fade 7200ms linear 0ms infinite;}.ESLCGBJw_19{stroke-dasharray:41 43;stroke-dashoffset:42;animation:ESLCGBJw_draw_19 7200ms linear 0ms infinite,ESLCGBJw_fade 7200ms linear 0ms infinite;}.ESLCGBJw_20{stroke-dasharray:41 43;stroke-dashoffset:42;animation:ESLCGBJw_draw_20 7200ms linear 0ms infinite,ESLCGBJw_fade 7200ms linear 0ms infinite;}.ESLCGBJw_21{stroke-dasharray:34 36;stroke-dashoffset:35;animation:ESLCGBJw_draw_21 7200ms linear 0ms infinite,ESLCGBJw_fade 7200ms linear 0ms infinite;}.ESLCGBJw_22{stroke-dasharray:24 26;stroke-dashoffset:25;animation:ESLCGBJw_draw_22 7200ms linear 0ms infinite,ESLCGBJw_fade 7200ms linear 0ms infinite;}@keyframes ESLCGBJw_draw{100%{stroke-dashoffset:0;}}@keyframes ESLCGBJw_fade{0%{stroke-opacity:1;}94.44444444444444%{stroke-opacity:1;}100%{stroke-opacity:0;}}@keyframes ESLCGBJw_draw_0{11.11111111111111%{stroke-dashoffset: 132}38.88888888888889%{ stroke-dashoffset: 0;}100%{ stroke-dashoffset: 0;}}@keyframes ESLCGBJw_draw_1{11.742424242424242%{stroke-dashoffset: 98}39.52020202020202%{ stroke-dashoffset: 0;}100%{ stroke-dashoffset: 0;}}@keyframes ESLCGBJw_draw_2{12.373737373737374%{stroke-dashoffset: 213}40.151515151515156%{ stroke-dashoffset: 0;}100%{ stroke-dashoffset: 0;}}@keyframes ESLCGBJw_draw_3{13.005050505050505%{stroke-dashoffset: 147}40.78282828282829%{ stroke-dashoffset: 0;}100%{ stroke-dashoffset: 0;}}@keyframes ESLCGBJw_draw_4{13.636363636363635%{stroke-dashoffset: 68}41.41414141414141%{ stroke-dashoffset: 0;}100%{ stroke-dashoffset: 0;}}@keyframes ESLCGBJw_draw_5{14.267676767676768%{stroke-dashoffset: 71}42.04545454545454%{ stroke-dashoffset: 0;}100%{ stroke-dashoffset: 0;}}@keyframes ESLCGBJw_draw_6{14.8989898989899%{stroke-dashoffset: 70}42.67676767676768%{ stroke-dashoffset: 0;}100%{ stroke-dashoffset: 0;}}@keyframes ESLCGBJw_draw_7{15.530303030303031%{stroke-dashoffset: 58}43.30808080808081%{ stroke-dashoffset: 0;}100%{ stroke-dashoffset: 0;}}@keyframes ESLCGBJw_draw_8{16.16161616161616%{stroke-dashoffset: 164}43.93939393939394%{ stroke-dashoffset: 0;}100%{ stroke-dashoffset: 0;}}@keyframes ESLCGBJw_draw_9{16.792929292929294%{stroke-dashoffset: 112}44.57070707070707%{ stroke-dashoffset: 0;}100%{ stroke-dashoffset: 0;}}@keyframes ESLCGBJw_draw_10{17.424242424242422%{stroke-dashoffset: 149}45.2020202020202%{ stroke-dashoffset: 0;}100%{ stroke-dashoffset: 0;}}@keyframes ESLCGBJw_draw_11{18.055555555555554%{stroke-dashoffset: 69}45.83333333333333%{ stroke-dashoffset: 0;}100%{ stroke-dashoffset: 0;}}@keyframes ESLCGBJw_draw_12{18.68686868686869%{stroke-dashoffset: 58}46.464646464646464%{ stroke-dashoffset: 0;}100%{ stroke-dashoffset: 0;}}@keyframes ESLCGBJw_draw_13{19.31818181818182%{stroke-dashoffset: 42}47.0959595959596%{ stroke-dashoffset: 0;}100%{ stroke-dashoffset: 0;}}@keyframes ESLCGBJw_draw_14{19.94949494949495%{stroke-dashoffset: 190}47.72727272727273%{ stroke-dashoffset: 0;}100%{ stroke-dashoffset: 0;}}@keyframes ESLCGBJw_draw_15{20.58080808080808%{stroke-dashoffset: 56}48.35858585858586%{ stroke-dashoffset: 0;}100%{ stroke-dashoffset: 0;}}@keyframes ESLCGBJw_draw_16{21.21212121212121%{stroke-dashoffset: 44}48.98989898989899%{ stroke-dashoffset: 0;}100%{ stroke-dashoffset: 0;}}@keyframes ESLCGBJw_draw_17{21.843434343434343%{stroke-dashoffset: 72}49.621212121212125%{ stroke-dashoffset: 0;}100%{ stroke-dashoffset: 0;}}@keyframes ESLCGBJw_draw_18{22.474747474747474%{stroke-dashoffset: 84}50.252525252525245%{ stroke-dashoffset: 0;}100%{ stroke-dashoffset: 0;}}@keyframes ESLCGBJw_draw_19{23.106060606060606%{stroke-dashoffset: 42}50.88383838383839%{ stroke-dashoffset: 0;}100%{ stroke-dashoffset: 0;}}@keyframes ESLCGBJw_draw_20{23.737373737373737%{stroke-dashoffset: 42}51.515151515151516%{ stroke-dashoffset: 0;}100%{ stroke-dashoffset: 0;}}@keyframes ESLCGBJw_draw_21{24.36868686868687%{stroke-dashoffset: 35}52.14646464646464%{ stroke-dashoffset: 0;}100%{ stroke-dashoffset: 0;}}@keyframes ESLCGBJw_draw_22{25%{stroke-dashoffset: 25}52.77777777777778%{ stroke-dashoffset: 0;}100%{ stroke-dashoffset: 0;}}</style></svg>